<svg width="1792" height="1792" viewBox="0 0 1792 1792" fill="none" xmlns="http://www.w3.org/2000/svg">
<path d="M896 1678.9C1328.38 1678.9 1678.9 1328.38 1678.9 896C1678.9 463.616 1328.38 113.1 896 113.1C463.616 113.1 113.1 463.616 113.1 896C113.1 1328.38 463.616 1678.9 896 1678.9Z" fill="#1AAE9F"/>
<path d="M1322.7 592.9C1282.1 552.3 1216.4 552.3 1175.8 592.9L720.1 1048.9L549.4 878.6C508.8 838 443.1 838 402.5 878.6C361.9 919.2 361.9 984.9 402.5 1025.5L636.1 1257.9C639.2 1262 642.6 1266 646.3 1269.7C666.8 1290.2 693.8 1300.3 720.7 1300.1C747.5 1300.3 774.4 1290.2 794.9 1269.7C798.7 1265.9 802.2 1261.8 805.3 1257.6L1322.7 739.8C1363.3 699.3 1363.3 633.5 1322.7 592.9Z" fill="white"/>
</svg>
